<?xml version="1.0" encoding="UTF-8" standalone="no"?>
<!DOCTYPE svg PUBLIC "-//W3C//DTD SVG 1.1//EN"
"http://www.w3.org/Graphics/SVG/1.1/DTD/svg11.dtd">


<!-- Page 1 -->
<svg x="0" y="0" width="770" height="770" version="1.1" xmlns="http://www.w3.org/2000/svg" xmlns:xlink="http://www.w3.org/1999/xlink"
style="display: block;margin-left: auto;margin-right: auto;">
<defs>
<clipPath id="c0_1"><path d="M90.5,657.5l0,-567l541,0l0,567Z" /></clipPath>

<style type="text/css"><![CDATA[

.g64_1{
fill: #7878BA;
}
.g82_1{
fill: #C69898;
}
.g6_1{
fill: #9D9DC8;
}
.g96_1{
fill: #972020;
}
.g33_1{
fill: #A44040;
}
.g26_1{
fill: #D5BDBD;
}
.g39_1{
fill: #951B1B;
}
.g22_1{
fill: #D0AFAF;
}
.g34_1{
fill: #A84A4A;
}
.g104_1{
fill: none;
stroke: #999999;
stroke-width: 3;
stroke-linecap: round;
stroke-linejoin: round;
}
.g94_1{
fill: #9F3232;
}
.g20_1{
fill: #D3B9B9;
}
.g55_1{
fill: #4545A6;
}
.g84_1{
fill: #C18A8A;
}
.g83_1{
fill: #C59494;
}
.g85_1{
fill: #BD8181;
}
.g13_1{
fill: #DBCBCB;
}
.g92_1{
fill: #A64545;
}
.g95_1{
fill: #9B2929;
}
.g76_1{
fill: #D0D0DC;
}
.g32_1{
fill: #BF8686;
}
.g30_1{
fill: #AB5353;
}
.g68_1{
fill: #8A8AC1;
}
.g47_1{
fill: #202097;
}
.g48_1{
fill: #252599;
}
.g37_1{
fill: #992525;
}
.g31_1{
fill: #B36565;
}
.g88_1{
fill: #B46A6A;
}
.g58_1{
fill: #5757AD;
}
.g65_1{
fill: #7C7CBC;
}
.g67_1{
fill: #8686BF;
}
.g87_1{
fill: #B66F6F;
}
.g43_1{
fill: #09098E;
}
.g1_1{
fill: none;
stroke: #E5E5E5;
stroke-width: 2;
stroke-linecap: round;
stroke-linejoin: round;
}
.g57_1{
fill: #5353AB;
}
.g46_1{
fill: #1B1B95;
}
.g17_1{
fill: #DCD0D0;
}
.g3_1{
fill: #E2DEDE;
}
.g38_1{
fill: #A03737;
}
.g56_1{
fill: #4E4EA9;
}
.g69_1{
fill: #8F8FC3;
}
.g60_1{
fill: #6161B1;
}
.g23_1{
fill: #D9C6C6;
}
.g5_1{
fill: #CBCBDB;
}
.g4_1{
fill: #A6A6CC;
}
.g10_1{
fill: #9494C5;
}
.g51_1{
fill: #32329F;
}
.g97_1{
fill: #941717;
}
.g21_1{
fill: #DED4D4;
}
.g11_1{
fill: #B9B9D3;
}
.g14_1{
fill: #BDBDD5;
}
.g70_1{
fill: #9898C7;
}
.g12_1{
fill: #121292;
}
.g18_1{
fill: #CCA6A6;
}
.g78_1{
fill: #E2E2E4;
}
.g28_1{
fill: #AD5757;
}
.g80_1{
fill: #CEABAB;
}
.g62_1{
fill: #6A6AB4;
}
.g73_1{
fill: #AFAFD0;
}
.g61_1{
fill: #6565B3;
}
.g19_1{
fill: #E4E2E2;
}
.g66_1{
fill: #8181BD;
}
.g72_1{
fill: #ABABCE;
}
.g75_1{
fill: #C2C2D7;
}
.g9_1{
fill: #D7C2C2;
}
.g52_1{
fill: #3737A0;
}
.g49_1{
fill: #29299B;
}
.g54_1{
fill: #4040A4;
}
.g40_1{
fill: none;
stroke: #000000;
stroke-width: 2;
stroke-linecap: round;
stroke-linejoin: round;
}
.g35_1{
fill: #B87373;
}
.g74_1{
fill: #B4B4D1;
}
.g63_1{
fill: #7373B8;
}
.g27_1{
fill: #E0D9D9;
}
.g93_1{
fill: #A23C3C;
}
.g29_1{
fill: #6F6FB6;
}
.g41_1{
fill: #00008B;
}
.g50_1{
fill: #2E2E9D;
}
.g98_1{
fill: #921212;
}
.g36_1{
fill: #9D2E2E;
}
.g42_1{
fill: #04048C;
}
.g44_1{
fill: #0D0D90;
}
.g103_1{
fill: none;
stroke: #BEBEBE;
stroke-width: 2;
stroke-linecap: round;
stroke-linejoin: round;
}
.g99_1{
fill: #900D0D;
}
.g59_1{
fill: #5C5CAF;
}
.g86_1{
fill: #BA7878;
}
.g7_1{
fill: #DEDEE2;
}
.g91_1{
fill: #A94E4E;
}
.g25_1{
fill: #BC7C7C;
}
.g90_1{
fill: #AF5C5C;
}
.g24_1{
fill: #C38F8F;
}
.g79_1{
fill: #D1B4B4;
}
.g100_1{
fill: #8E0909;
}
.g53_1{
fill: #3C3CA2;
}
.g16_1{
fill: #C6C6D9;
}
.g45_1{
fill: #171794;
}
.g102_1{
fill: #8B0000;
}
.g81_1{
fill: #C89D9D;
}
.g77_1{
fill: #D4D4DE;
}
.g8_1{
fill: #CAA1A1;
}
.g71_1{
fill: #A1A1CA;
}
.g89_1{
fill: #B16161;
}
.g2_1{
fill: #4A4AA8;
}
.g15_1{
fill: #D9D9E0;
}
.g101_1{
fill: #8C0404;
}

.s1_1{
font-size: 18.33px;
font-family: Helvetica, Arial, sans-serif;
fill: #000000;
}
.s2_1{
font-size: 21.39px;
font-weight: bold;
font-family: Helvetica, Arial, sans-serif;
fill: #000000;
}

]]></style>

</defs>
<path d="M0,0
L0,770
L770,770
L770,0 Z " 
fill="#FFFFFF" stroke="none" />
<path d="M144,657l456,0" class="g1_1" />
<path d="M144,657l0,11" class="g1_1" />
<path d="M235,657l0,11" class="g1_1" />
<path d="M326,657l0,11" class="g1_1" />
<path d="M417,657l0,11" class="g1_1" />
<path d="M509,657l0,11" class="g1_1" />
<path d="M600,657l0,11" class="g1_1" />
<text 
x="123" 
y="697" 
dx="0,0,0,0" 
class="s1_1"
>-124</text>

<text 
x="214" 
y="697" 
dx="0,0,0,0" 
class="s1_1"
>-122</text>

<text 
x="305" 
y="697" 
dx="0,0,0,0" 
class="s1_1"
>-120</text>

<text 
x="397" 
y="697" 
dx="0,0,0,0" 
class="s1_1"
>-118</text>

<text 
x="488" 
y="697" 
dx="0,0,0,0" 
class="s1_1"
>-116</text>

<text 
x="579" 
y="697" 
dx="0,0,0,0" 
class="s1_1"
>-114</text>

<path d="M90,647L90,140" class="g1_1" />
<path d="M90,647l-11,0" class="g1_1" />
<path d="M90,545l-11,0" class="g1_1" />
<path d="M90,444l-11,0" class="g1_1" />
<path d="M90,343l-11,0" class="g1_1" />
<path d="M90,242l-11,0" class="g1_1" />
<path d="M90,140l-11,0" class="g1_1" />
<text 
transform="matrix(0, -1, 1, 0, 63, 657)"
dx="0,0" 
class="s1_1"
>32</text>

<text 
transform="matrix(0, -1, 1, 0, 63, 556)"
dx="0,0" 
class="s1_1"
>34</text>

<text 
transform="matrix(0, -1, 1, 0, 63, 454)"
dx="0,0" 
class="s1_1"
>36</text>

<text 
transform="matrix(0, -1, 1, 0, 63, 353)"
dx="0,0" 
class="s1_1"
>38</text>

<text 
transform="matrix(0, -1, 1, 0, 63, 252)"
dx="0,0" 
class="s1_1"
>40</text>

<text 
transform="matrix(0, -1, 1, 0, 63, 151)"
dx="0,0" 
class="s1_1"
>42</text>

<text 
x="255" 
y="52" 
dx="0,0,0,0,0,-1.3,0,0,0,0,0,-0.4,0,-0.3,0,0,0,0,0" 
class="s2_1"
>Max Temp. July 1989</text>

<path d="M132,211l7,0l0,-8l-7,0l0,8Z" class="g2_1" />
<path d="M153,248l7,0l0,-8l-7,0l0,8Z" class="g3_1" />
<path d="M153,196l7,0l0,-8l-7,0l0,8Z" class="g4_1" />
<path d="M160,233l7,0l0,-8l-7,0l0,8Z" class="g5_1" />
<path d="M167,336l8,0l0,-7l-8,0l0,7Z" class="g6_1" />
<path d="M167,211l8,0l0,-8l-8,0l0,8Z" class="g5_1" />
<path d="M175,151l7,0l0,-7l-7,0l0,7Z" class="g4_1" />
<path d="M182,322l7,0l0,-8l-7,0l0,8Z" class="g6_1" />
<path d="M182,299l7,0l0,-7l-7,0l0,7Z" class="g6_1" />
<path d="M182,277l7,0l0,-7l-7,0l0,7Z" class="g3_1" />
<path d="M182,255l7,0l0,-7l-7,0l0,7Z" class="g3_1" />
<path d="M182,225l7,0l0,-7l-7,0l0,7Z" class="g5_1" />
<path d="M182,174l7,0l0,-8l-7,0l0,8Z" class="g4_1" />
<path d="M182,151l7,0l0,-7l-7,0l0,7Z" class="g4_1" />
<path d="M196,196l7,0l0,-8l-7,0l0,8Z" class="g7_1" />
<path d="M203,329l7,0l0,-7l-7,0l0,7Z" class="g8_1" />
<path d="M203,240l7,0l0,-7l-7,0l0,7Z" class="g7_1" />
<path d="M217,292l8,0l0,-7l-8,0l0,7Z" class="g9_1" />
<path d="M217,248l8,0l0,-8l-8,0l0,8Z" class="g9_1" />
<path d="M217,144l8,0l0,-7l-8,0l0,7Z" class="g10_1" />
<path d="M225,255l7,0l0,-7l-7,0l0,7Z" class="g9_1" />
<path d="M225,159l7,0l0,-8l-7,0l0,8Z" class="g11_1" />
<path d="M232,418l7,0l0,-7l-7,0l0,7Z" class="g12_1" />
<path d="M232,277l7,0l0,-7l-7,0l0,7Z" class="g13_1" />
<path d="M232,196l7,0l0,-8l-7,0l0,8Z" class="g11_1" />
<path d="M232,174l7,0l0,-8l-7,0l0,8Z" class="g14_1" />
<path d="M239,233l7,0l0,-8l-7,0l0,8Z" class="g15_1" />
<path d="M246,255l7,0l0,-7l-7,0l0,7Z" class="g13_1" />
<path d="M246,233l7,0l0,-8l-7,0l0,8Z" class="g15_1" />
<path d="M253,248l7,0l0,-8l-7,0l0,8Z" class="g13_1" />
<path d="M267,433l8,0l0,-8l-8,0l0,8Z" class="g16_1" />
<path d="M267,292l8,0l0,-7l-8,0l0,7Z" class="g13_1" />
<path d="M267,248l8,0l0,-8l-8,0l0,8Z" class="g13_1" />
<path d="M267,218l8,0l0,-7l-8,0l0,7Z" class="g15_1" />
<path d="M267,174l8,0l0,-8l-8,0l0,8Z" class="g14_1" />
<path d="M275,366l7,0l0,-7l-7,0l0,7Z" class="g17_1" />
<path d="M275,307l7,0l0,-8l-7,0l0,8Z" class="g18_1" />
<path d="M275,203l7,0l0,-7l-7,0l0,7Z" class="g19_1" />
<path d="M282,470l7,0l0,-8l-7,0l0,8Z" class="g3_1" />
<path d="M282,462l7,0l0,-7l-7,0l0,7Z" class="g3_1" />
<path d="M282,388l7,0l0,-7l-7,0l0,7Z" class="g20_1" />
<path d="M282,270l7,0l0,-8l-7,0l0,8Z" class="g21_1" />
<path d="M289,492l7,0l0,-7l-7,0l0,7Z" class="g3_1" />
<path d="M289,196l7,0l0,-8l-7,0l0,8Z" class="g19_1" />
<path d="M296,462l7,0l0,-7l-7,0l0,7Z" class="g3_1" />
<path d="M296,307l7,0l0,-8l-7,0l0,8Z" class="g13_1" />
<path d="M303,433l7,0l0,-8l-7,0l0,8Z" class="g22_1" />
<path d="M303,425l7,0l0,-7l-7,0l0,7Z" class="g22_1" />
<path d="M303,366l7,0l0,-7l-7,0l0,7Z" class="g20_1" />
<path d="M303,329l7,0l0,-7l-7,0l0,7Z" class="g13_1" />
<path d="M310,433l7,0l0,-8l-7,0l0,8Z" class="g22_1" />
<path d="M310,322l7,0l0,-8l-7,0l0,8Z" class="g13_1" />
<path d="M317,492l8,0l0,-7l-8,0l0,7Z" class="g3_1" />
<path d="M325,507l7,0l0,-8l-7,0l0,8Z" class="g9_1" />
<path d="M325,366l7,0l0,-7l-7,0l0,7Z" class="g23_1" />
<path d="M325,277l7,0l0,-7l-7,0l0,7Z" class="g17_1" />
<path d="M332,418l7,0l0,-7l-7,0l0,7Z" class="g18_1" />
<path d="M332,388l7,0l0,-7l-7,0l0,7Z" class="g23_1" />
<path d="M332,292l7,0l0,-7l-7,0l0,7Z" class="g17_1" />
<path d="M346,448l7,0l0,-8l-7,0l0,8Z" class="g18_1" />
<path d="M353,507l7,0l0,-8l-7,0l0,8Z" class="g9_1" />
<path d="M353,455l7,0l0,-7l-7,0l0,7Z" class="g24_1" />
<path d="M367,462l8,0l0,-7l-8,0l0,7Z" class="g25_1" />
<path d="M375,492l7,0l0,-7l-7,0l0,7Z" class="g25_1" />
<path d="M375,292l7,0l0,-7l-7,0l0,7Z" class="g26_1" />
<path d="M382,573l7,0l0,-7l-7,0l0,7Z" class="g23_1" />
<path d="M382,396l7,0l0,-8l-7,0l0,8Z" class="g27_1" />
<path d="M389,499l7,0l0,-7l-7,0l0,7Z" class="g28_1" />
<path d="M396,603l7,0l0,-7l-7,0l0,7Z" class="g29_1" />
<path d="M396,588l7,0l0,-7l-7,0l0,7Z" class="g23_1" />
<path d="M396,573l7,0l0,-7l-7,0l0,7Z" class="g23_1" />
<path d="M403,507l7,0l0,-8l-7,0l0,8Z" class="g28_1" />
<path d="M403,448l7,0l0,-8l-7,0l0,8Z" class="g25_1" />
<path d="M410,418l7,0l0,-7l-7,0l0,7Z" class="g22_1" />
<path d="M410,403l7,0l0,-7l-7,0l0,7Z" class="g22_1" />
<path d="M410,373l7,0l0,-7l-7,0l0,7Z" class="g27_1" />
<path d="M425,610l7,0l0,-7l-7,0l0,7Z" class="g15_1" />
<path d="M425,536l7,0l0,-7l-7,0l0,7Z" class="g30_1" />
<path d="M432,485l7,0l0,-8l-7,0l0,8Z" class="g31_1" />
<path d="M439,603l7,0l0,-7l-7,0l0,7Z" class="g15_1" />
<path d="M439,403l7,0l0,-7l-7,0l0,7Z" class="g32_1" />
<path d="M439,381l7,0l0,-8l-7,0l0,8Z" class="g18_1" />
<path d="M446,514l7,0l0,-7l-7,0l0,7Z" class="g30_1" />
<path d="M446,462l7,0l0,-7l-7,0l0,7Z" class="g31_1" />
<path d="M446,455l7,0l0,-7l-7,0l0,7Z" class="g31_1" />
<path d="M453,573l7,0l0,-7l-7,0l0,7Z" class="g30_1" />
<path d="M453,551l7,0l0,-7l-7,0l0,7Z" class="g30_1" />
<path d="M453,485l7,0l0,-8l-7,0l0,8Z" class="g31_1" />
<path d="M453,403l7,0l0,-7l-7,0l0,7Z" class="g32_1" />
<path d="M460,470l7,0l0,-8l-7,0l0,8Z" class="g28_1" />
<path d="M467,559l8,0l0,-8l-8,0l0,8Z" class="g33_1" />
<path d="M467,514l8,0l0,-7l-8,0l0,7Z" class="g34_1" />
<path d="M475,514l7,0l0,-7l-7,0l0,7Z" class="g34_1" />
<path d="M475,418l7,0l0,-7l-7,0l0,7Z" class="g35_1" />
<path d="M517,603l8,0l0,-7l-8,0l0,7Z" class="g36_1" />
<path d="M517,551l8,0l0,-7l-8,0l0,7Z" class="g37_1" />
<path d="M539,507l7,0l0,-8l-7,0l0,8Z" class="g38_1" />
<path d="M560,596l7,0l0,-8l-7,0l0,8Z" class="g39_1" />
<path d="M582,544l7,0l0,-8l-7,0l0,8Z" class="g38_1" />
<path d="M666,629l19,0l0,-511l-19,0l0,511" class="g40_1" />
<path d="M666,629l19,0l0,-5l-19,0l0,5Z" class="g41_1" />
<path d="M666,624l19,0l0,-5l-19,0l0,5Z" class="g42_1" />
<path d="M666,619l19,0l0,-5l-19,0l0,5Z" class="g43_1" />
<path d="M666,614l19,0l0,-6l-19,0l0,6Z" class="g44_1" />
<path d="M666,608l19,0l0,-5l-19,0l0,5Z" class="g12_1" />
<path d="M666,603l19,0l0,-5l-19,0l0,5Z" class="g45_1" />
<path d="M666,598l19,0l0,-5l-19,0l0,5Z" class="g46_1" />
<path d="M666,593l19,0l0,-5l-19,0l0,5Z" class="g47_1" />
<path d="M666,588l19,0l0,-5l-19,0l0,5Z" class="g48_1" />
<path d="M666,583l19,0l0,-5l-19,0l0,5Z" class="g49_1" />
<path d="M666,578l19,0l0,-5l-19,0l0,5Z" class="g50_1" />
<path d="M666,573l19,0l0,-5l-19,0l0,5Z" class="g51_1" />
<path d="M666,568l19,0l0,-5l-19,0l0,5Z" class="g52_1" />
<path d="M666,563l19,0l0,-6l-19,0l0,6Z" class="g53_1" />
<path d="M666,557l19,0l0,-5l-19,0l0,5Z" class="g54_1" />
<path d="M666,552l19,0l0,-5l-19,0l0,5Z" class="g55_1" />
<path d="M666,547l19,0l0,-5l-19,0l0,5Z" class="g2_1" />
<path d="M666,542l19,0l0,-5l-19,0l0,5Z" class="g56_1" />
<path d="M666,537l19,0l0,-5l-19,0l0,5Z" class="g57_1" />
<path d="M666,532l19,0l0,-5l-19,0l0,5Z" class="g58_1" />
<path d="M666,527l19,0l0,-5l-19,0l0,5Z" class="g59_1" />
<path d="M666,522l19,0l0,-5l-19,0l0,5Z" class="g60_1" />
<path d="M666,517l19,0l0,-6l-19,0l0,6Z" class="g61_1" />
<path d="M666,511l19,0l0,-5l-19,0l0,5Z" class="g62_1" />
<path d="M666,506l19,0l0,-5l-19,0l0,5Z" class="g29_1" />
<path d="M666,501l19,0l0,-5l-19,0l0,5Z" class="g63_1" />
<path d="M666,496l19,0l0,-5l-19,0l0,5Z" class="g64_1" />
<path d="M666,491l19,0l0,-5l-19,0l0,5Z" class="g65_1" />
<path d="M666,486l19,0l0,-5l-19,0l0,5Z" class="g66_1" />
<path d="M666,481l19,0l0,-5l-19,0l0,5Z" class="g67_1" />
<path d="M666,476l19,0l0,-5l-19,0l0,5Z" class="g68_1" />
<path d="M666,471l19,0l0,-6l-19,0l0,6Z" class="g69_1" />
<path d="M666,465l19,0l0,-5l-19,0l0,5Z" class="g10_1" />
<path d="M666,460l19,0l0,-5l-19,0l0,5Z" class="g70_1" />
<path d="M666,455l19,0l0,-5l-19,0l0,5Z" class="g6_1" />
<path d="M666,450l19,0l0,-5l-19,0l0,5Z" class="g71_1" />
<path d="M666,445l19,0l0,-5l-19,0l0,5Z" class="g4_1" />
<path d="M666,440l19,0l0,-5l-19,0l0,5Z" class="g72_1" />
<path d="M666,435l19,0l0,-5l-19,0l0,5Z" class="g73_1" />
<path d="M666,430l19,0l0,-5l-19,0l0,5Z" class="g74_1" />
<path d="M666,425l19,0l0,-6l-19,0l0,6Z" class="g11_1" />
<path d="M666,419l19,0l0,-5l-19,0l0,5Z" class="g14_1" />
<path d="M666,414l19,0l0,-5l-19,0l0,5Z" class="g75_1" />
<path d="M666,409l19,0l0,-5l-19,0l0,5Z" class="g16_1" />
<path d="M666,404l19,0l0,-5l-19,0l0,5Z" class="g5_1" />
<path d="M666,399l19,0l0,-5l-19,0l0,5Z" class="g76_1" />
<path d="M666,394l19,0l0,-5l-19,0l0,5Z" class="g77_1" />
<path d="M666,389l19,0l0,-5l-19,0l0,5Z" class="g15_1" />
<path d="M666,384l19,0l0,-5l-19,0l0,5Z" class="g7_1" />
<path d="M666,379l19,0l0,-6l-19,0l0,6Z" class="g78_1" />
<path d="M666,373l19,0l0,-5l-19,0l0,5Z" class="g19_1" />
<path d="M666,368l19,0l0,-5l-19,0l0,5Z" class="g3_1" />
<path d="M666,363l19,0l0,-5l-19,0l0,5Z" class="g27_1" />
<path d="M666,358l19,0l0,-5l-19,0l0,5Z" class="g21_1" />
<path d="M666,353l19,0l0,-5l-19,0l0,5Z" class="g17_1" />
<path d="M666,348l19,0l0,-5l-19,0l0,5Z" class="g13_1" />
<path d="M666,343l19,0l0,-5l-19,0l0,5Z" class="g23_1" />
<path d="M666,338l19,0l0,-5l-19,0l0,5Z" class="g9_1" />
<path d="M666,333l19,0l0,-5l-19,0l0,5Z" class="g26_1" />
<path d="M666,328l19,0l0,-6l-19,0l0,6Z" class="g20_1" />
<path d="M666,322l19,0l0,-5l-19,0l0,5Z" class="g79_1" />
<path d="M666,317l19,0l0,-5l-19,0l0,5Z" class="g22_1" />
<path d="M666,312l19,0l0,-5l-19,0l0,5Z" class="g80_1" />
<path d="M666,307l19,0l0,-5l-19,0l0,5Z" class="g18_1" />
<path d="M666,302l19,0l0,-5l-19,0l0,5Z" class="g8_1" />
<path d="M666,297l19,0l0,-5l-19,0l0,5Z" class="g81_1" />
<path d="M666,292l19,0l0,-5l-19,0l0,5Z" class="g82_1" />
<path d="M666,287l19,0l0,-5l-19,0l0,5Z" class="g83_1" />
<path d="M666,282l19,0l0,-6l-19,0l0,6Z" class="g24_1" />
<path d="M666,276l19,0l0,-5l-19,0l0,5Z" class="g84_1" />
<path d="M666,271l19,0l0,-5l-19,0l0,5Z" class="g32_1" />
<path d="M666,266l19,0l0,-5l-19,0l0,5Z" class="g85_1" />
<path d="M666,261l19,0l0,-5l-19,0l0,5Z" class="g25_1" />
<path d="M666,256l19,0l0,-5l-19,0l0,5Z" class="g86_1" />
<path d="M666,251l19,0l0,-5l-19,0l0,5Z" class="g35_1" />
<path d="M666,246l19,0l0,-5l-19,0l0,5Z" class="g87_1" />
<path d="M666,241l19,0l0,-5l-19,0l0,5Z" class="g88_1" />
<path d="M666,236l19,0l0,-6l-19,0l0,6Z" class="g31_1" />
<path d="M666,230l19,0l0,-5l-19,0l0,5Z" class="g89_1" />
<path d="M666,225l19,0l0,-5l-19,0l0,5Z" class="g90_1" />
<path d="M666,220l19,0l0,-5l-19,0l0,5Z" class="g28_1" />
<path d="M666,215l19,0l0,-5l-19,0l0,5Z" class="g30_1" />
<path d="M666,210l19,0l0,-5l-19,0l0,5Z" class="g91_1" />
<path d="M666,205l19,0l0,-5l-19,0l0,5Z" class="g34_1" />
<path d="M666,200l19,0l0,-5l-19,0l0,5Z" class="g92_1" />
<path d="M666,195l19,0l0,-5l-19,0l0,5Z" class="g33_1" />
<path d="M666,190l19,0l0,-6l-19,0l0,6Z" class="g93_1" />
<path d="M666,184l19,0l0,-5l-19,0l0,5Z" class="g38_1" />
<path d="M666,179l19,0l0,-5l-19,0l0,5Z" class="g94_1" />
<path d="M666,174l19,0l0,-5l-19,0l0,5Z" class="g36_1" />
<path d="M666,169l19,0l0,-5l-19,0l0,5Z" class="g95_1" />
<path d="M666,164l19,0l0,-5l-19,0l0,5Z" class="g37_1" />
<path d="M666,159l19,0l0,-5l-19,0l0,5Z" class="g96_1" />
<path d="M666,154l19,0l0,-5l-19,0l0,5Z" class="g39_1" />
<path d="M666,149l19,0l0,-5l-19,0l0,5Z" class="g97_1" />
<path d="M666,144l19,0l0,-5l-19,0l0,5Z" class="g98_1" />
<path d="M666,139l19,0l0,-6l-19,0l0,6Z" class="g99_1" />
<path d="M666,133l19,0l0,-5l-19,0l0,5Z" class="g100_1" />
<path d="M666,128l19,0l0,-5l-19,0l0,5Z" class="g101_1" />
<path d="M666,123l19,0l0,-5l-19,0l0,5Z" class="g102_1" />
<path d="M685,629l0,-511" class="g40_1" />
<path d="M685,629l11,0" class="g40_1" />
<path d="M685,527l11,0" class="g40_1" />
<path d="M685,425l11,0" class="g40_1" />
<path d="M685,322l11,0" class="g40_1" />
<path d="M685,220l11,0" class="g40_1" />
<path d="M685,118l11,0" class="g40_1" />
<text 
x="707" 
y="635" 
dx="0,0" 
class="s1_1"
>15</text>

<text 
x="707" 
y="533" 
dx="0,0" 
class="s1_1"
>20</text>

<text 
x="707" 
y="431" 
dx="0,0" 
class="s1_1"
>25</text>

<text 
x="707" 
y="329" 
dx="0,0" 
class="s1_1"
>30</text>

<text 
x="707" 
y="227" 
dx="0,0" 
class="s1_1"
>35</text>

<text 
x="707" 
y="125" 
dx="0,0" 
class="s1_1"
>40</text>

<path d="M666,629l19,0l0,-511l-19,0l0,511" class="g40_1" />
<g clip-path="url(#c0_1)">
<path d="M711.7,523.6l0,-18.3l-9.9,0l-1.4,-9l-24.3,0.9l0,-9.6l-4.4,0l0,-5.2l-1.3,0l-1.1,0.6l-3.1,0.3l-3.4,-3.5l-14.7,-2.6l-9.6,-7.3l-7.3,-1.1" class="g103_1" />
<path d="M667,394.2l-4.2,18l0,4.3l-2.1,5l3.4,3.2l-3.7,3.4l-1.8,-0.5l0.5,1.4l-2.3,1.5l-8.7,2.9L645,433.1l-4.4,2.9l-6,4.3l-4.5,2.1l1.6,4.3l-0.5,22.1" class="g103_1" />
<path d="M630.6,621.1l51.5,0.3" class="g103_1" />
</g>
<path d="M630.6,621.1l0,-21.8l0.3,-21.7" class="g103_1" />
<path d="M630.9,577.6l0,-6.1l0.3,-17.7l-0.3,-8.2" class="g103_1" />
<g clip-path="url(#c0_1)">
<path d="M717.4,545.9l-32.4,-2l-3.9,4.1l0.3,1.7L679,552l-21.2,-6.4l-26.9,0" class="g103_1" />
</g>
<path d="M571.3,494.3L571,489.9l3.2,-3.7l-2.4,-11.6l-1.6,-4.7l-1.8,-14.8L567.9,449l-1.1,-2.3l-1,-5.2l1,-2.3l4.2,-1.8l14.4,1.5l0.8,3.5l2.1,0.8l5.7,-0.5l4,-8.8L598.2,402" class="g103_1" />
<path d="M598.2,402l0.3,-7.8" class="g103_1" />
<g clip-path="url(#c0_1)">
<path d="M650.2,394.2l-17,-0.3l-11.7,0l-23,0.3" class="g103_1" />
<path d="M630.9,529.4l0.5,-14.2l-0.2,-16.3l0,-30.1" class="g103_1" />
</g>
<path d="M630.9,529.4l-8.9,0.9l-2.3,3.7l-4.5,1.2l-1.3,-1.5l-5.8,0.3L594,530.9" class="g103_1" />
<path d="M571.3,494.3l1.3,6.7l2.6,2.6l-1,1.4l5.7,5l3.4,12.1l10.7,8.8" class="g103_1" />
<g clip-path="url(#c0_1)">
<path d="M719.5,675.3L676.7,660.2l-15.5,-4.9l-31.1,-11" class="g103_1" />
</g>
<path d="M630.6,621.1l-0.5,23.2" class="g103_1" />
<path d="M630,529l0,16" class="g103_1" />
<path d="M566.8,610l-3.4,11.1l5,1.7l17.5,6.1l44.2,15.4" class="g103_1" />
<path d="M566.8,610l8.4,-1.4l1.3,-3.2l2.1,-2.6l-0.3,-6.1l-2.6,-2.3" class="g103_1" />
<path d="M630.9,577.6l-28.5,0l0,-4.4l-14.1,0L588,595l-12.3,-0.6" class="g103_1" />
<path d="M237.7,369.8l2.3,0.6l0.5,-0.8l18.6,0" class="g103_1" />
<path d="M237.7,369.8l-5.8,-3.4l-1.8,-5.3l-1.3,-2.6l-6,-4.6l0,-5.5" class="g103_1" />
<path d="M255.7,352.7l-19.6,5.5l-0.3,-2.9l-6,-1.4L227,352.4l-0.8,-2.3l-3.4,-1.7" class="g103_1" />
<path d="M255.7,352.7l0,14l2.4,0.5l1,2.4" class="g103_1" />
<path d="M323.2,307.5l7.3,-6.1l0.2,-1.2l1.9,-2.9" class="g103_1" />
<path d="M346.2,308L332.6,297.3" class="g103_1" />
<path d="M346.2,308l-1.9,2.9l0.3,3l3.1,4.9l-1,2.3l0.5,1.2l-2.1,0.2l-2.3,4.1" class="g103_1" />
<path d="M324.2,320.8l8.6,4.4l4.7,-2.9l1.9,0.2l0.8,2.7l2.6,1.4" class="g103_1" />
<path d="M324.2,320.8l-1,-0.6l0,-2l0.2,-1.2" class="g103_1" />
<path d="M323.2,307.5l0.2,9.5" class="g103_1" />
<path d="M281.9,332.1l8.8,-3.5l12.9,-8.1l1.8,0.3l18,-3.8" class="g103_1" />
<path d="M281.9,332.1l-1.1,-3.7" class="g103_1" />
<path d="M280,317.3l0.8,11.1" class="g103_1" />
<path d="M323.2,307.5l-1.1,0l-3.1,3.7l-8.6,4.7l-3.7,0.3l-3.1,1.1L289.4,315l-9.4,2.3" class="g103_1" />
<path d="M252.6,277l-13.1,0.9" class="g103_1" />
<path d="M239.5,277.9l0,-2.1l0.8,-1.7l0.2,-0.9" class="g103_1" />
<path d="M232.7,252.1l5.2,4.3l0.3,2.3l-2.6,0.3l1,1.2l-1,0.6l0.2,1.1l-1,2.3l1.3,1.8l6,-0.6l-1.6,7.8" class="g103_1" />
<path d="M260.2,233.2l-0.3,1.7l-6.3,2.1l0.3,2.3l-1.8,0.6l-1.4,2.9l-1.8,0l-1.8,2l0.5,1.4l-1.6,0.9l-13,0.6l-0.3,4.4" class="g103_1" />
<path d="M260.2,233.2l3.9,3.8l-2.6,4.9L262,246l-1.1,0.2l9.7,9.6l7.9,6.1" class="g103_1" />
<path d="M252.6,277l5.5,-0.3l5.7,-2.3l4.2,-7.8l0.5,0l2.1,-0.6l3.7,0.3l4.2,-4.4" class="g103_1" />
<path d="M324.2,320.8l-8.9,7.3L305.4,342l-1.6,1.7l-1,-0.3l0.2,2.1l-6,6.3" class="g103_1" />
<path d="M284.7,339.7L297,351.8" class="g103_1" />
<path d="M284.7,339.7l-2.1,-3.5l-0.7,-4.1" class="g103_1" />
<path d="M243.4,295.9L217,296.2" class="g103_1" />
<path d="M202.1,272.9l-2.3,0l-1.4,0.3l2.4,0.6l-0.3,4.1l4.7,4l2.7,0.3l3.9,-0.3l1.6,1.8l-1.4,2.9l0.8,3.8L216,293l1,3.2" class="g103_1" />
<path d="M202.1,272.9l26.7,0l0,-1.1l6,0l0,1.1l5.7,0.3" class="g103_1" />
<path d="M243.4,295.9l-0.2,-1.8L245,293l-6.3,-6.4L238.2,279l1.3,-1.1" class="g103_1" />
<path d="M254.9,338.5l-0.8,2.3l1.3,1.2l-1.3,1.2l0.3,2l1.3,1.1l-1,3.8l1.5,1.2l-0.5,1.4" class="g103_1" />
<path d="M224.6,340.3L222,342l-2.1,0l0,0.6l-0.5,1.1l-1.3,1.5l4.7,3.2" class="g103_1" />
<path d="M224.6,340.3l5,1.7l5.4,-2l3.2,0.5l4.7,-0.2" class="g103_1" />
<path d="M254.9,338.5l-4.9,0l-0.3,1.8l-2.6,2l-4.2,-2" class="g103_1" />
<path d="M142.2,167.9l11.3,-0.3l0,4.1l4.9,0" class="g103_1" />
<path d="M142.2,167.9l-1.5,-4.3l1.5,0l-4.1,-8.7l-4.2,-4.4l1.8,-9.9" class="g103_1" />
<path d="M151.1,140.4l-15.4,0.2" class="g103_1" />
<path d="M151,140l13,0" class="g103_1" />
<path d="M158.4,171.7l-0.5,-4.9l1.6,-2.3l-2.1,-0.9l0,-2.6l-1.6,0l1.6,-4.1l1.3,-2.9l-1.8,-0.9l0.5,-2l-1,-2l1.5,0l1.3,-2.9l5,-2.9l0.5,-2.9" class="g103_1" />
<path d="M326.3,289.5l-6,-0.6l-5.2,2.6l-8.9,-0.3l-4.5,5l-1.3,0.8l-5.5,-3.2l-5.5,-1.4l-2.8,2.9l-7.6,2l-5,9.6" class="g103_1" />
<path d="M326.3,289.5l0.5,3.8l5.8,4" class="g103_1" />
<path d="M274,306.9l1.1,0l4.9,10.4" class="g103_1" />
<path d="M285.5,407.3l14.4,13.3l0,7.5l-3.7,0.9l-0.7,1.8" class="g103_1" />
<path d="M285.5,407.3l16.7,-15.1" class="g103_1" />
<path d="M302.2,392.2l3.7,6.1l0.8,3.7l7.3,4.4l22.8,-5.8l2.3,-5.8l3.9,-2.9l0.6,1.2l0.7,-1.2l3.4,-2.9l-1.3,-2.3l4.5,1.4l2.9,-2.9l1,0.9l2.1,-2l0.8,-6.7l13.8,-12.8" class="g103_1" />
<path d="M383.6,370.4L382,369l-2.9,0.6l-4.2,-4.1l-3.4,-0.9" class="g103_1" />
<path d="M383.6,370.4l-1.4,3.2l0.3,2.6l6,4.1l-1.3,1.4l1.1,4.7l9.6,4l4,9l-1.9,3.2l1.6,3.8" class="g103_1" />
<path d="M346.7,420l5.2,-4.3l6.8,0L359,411l14.6,0.3l0,-4l28,-0.9" class="g103_1" />
<path d="M313,449.6l15.9,-14.5l0,-10.4l9.2,0l0.7,-0.6l7.9,-4.1" class="g103_1" />
<path d="M313,449.6l-6.1,-2.9l-2.6,-3.2l-1.8,0.3l-2.6,-2.3L297.5,440l-1.8,-3.1l2.4,-3l-2.6,-1.1l0,-2" class="g103_1" />
<path d="M192.4,251.8l40.3,0.3" class="g103_1" />
<path d="M202.1,272.9l0.8,-2.8l-1.3,-2.7l-0.3,-4.3l-6.2,0" class="g103_1" />
<path d="M192.4,251.8l-0.2,2l1.3,0l0,2.3l0.8,0l0.8,7" class="g103_1" />
<path d="M164.7,241.6l-0.5,-36.8l-1.3,-3.5l0,-2.6l-2.1,-2.9l2.9,-2.1l2.9,2.1l3.6,-5.8l-3.1,-3.8l2.1,-1.7l1.3,-2.6" class="g103_1" />
<path d="M164,241l-20,0" class="g103_1" />
<path d="M142.2,167.9l-2.3,9.3l0,4.7l-1.8,-1.2l-1.1,2.9l2.9,5.8l-11,21.2l-2.4,8.7l1.9,1.7l-0.5,4.9l10.4,8.8l5.8,6.9" class="g103_1" />
<path d="M158.4,171.7l8.7,0.9l-0.3,0.8l1.6,4.1l2.1,4.4" class="g103_1" />
<path d="M575.7,594.4l-7.3,-2l0.5,-9.3l-2.3,-2.3l0.5,-4.7l1.8,-1.4" class="g103_1" />
<path d="M566.8,610l-62.5,5.6" class="g103_1" />
<path d="M505.7,574.7l-0.6,17.7l-1,0l0.2,23.2" class="g103_1" />
<path d="M505,574l63,0" class="g103_1" />
<path d="M524,453.1l-10.2,-8.7" class="g103_1" />
<path d="M524,453.1l-39,1.4l-19.6,0.6l-30.6,0.3" class="g103_1" />
<path d="M417.5,455.1l4.2,0.3l0,-0.6l13.1,0.6" class="g103_1" />
<path d="M417.5,455.1l0.8,-7.2l-1.8,-0.6l-0.5,-7l-1.1,-0.5l1.1,-2.9l-3.7,-6.1l1.1,-3.8l-2.1,-1.2l0,-3.2l-2.1,0.3l-2.4,-2.3l0.6,-2.6L405,416l0.5,-2.1l-4.7,-4l1.8,-1.5l-1,-2" class="g103_1" />
<path d="M383.6,370.4l41.3,-0.6" class="g103_1" />
<path d="M424.9,369.8l30.3,25" class="g103_1" />
<path d="M513.8,444.4L455.2,394.8" class="g103_1" />
<path d="M377,504l56,0" class="g103_1" />
<path d="M377,504.5l-1.8,0l-14.1,0.2l0,-1.7l-1.9,-0.6l0,-1.1l-7.3,-0.9" class="g103_1" />
<path d="M350.9,500.1l1,0.3" class="g103_1" />
<path d="M317.4,456l0,8.1l5,0.3l0,4.4l4.4,4.3l5.5,0l0,4.4l3.4,0l0,4.3l6,0.6l0.6,3.8l4.4,-0.3l0.5,4.6l2.9,0.6l0.8,9" class="g103_1" />
<path d="M317.4,456l31.4,-0.3" class="g103_1" />
<path d="M417.5,455.1l-68.7,0.6" class="g103_1" />
<path d="M433.8,504.5l1,-49.1" class="g103_1" />
<path d="M317.4,456l-2.3,-2.6l0.7,-2L313,449.6" class="g103_1" />
<path d="M346.7,420l1.8,0.3l0.3,4.1l2.6,0l-0.3,6.9l-2.8,0.3l0.5,24.1" class="g103_1" />
<path d="M217.3,299.6l-1.1,-1.4l0.8,-2" class="g103_1" />
<path d="M217.3,299.6l-0.6,2.9l-0.7,0.9l0.5,1.5l-2.9,3.1l-6.8,1.8" class="g103_1" />
<path d="M206.8,309.8L201.3,304l-0.2,-1.5l-2.9,-2.9" class="g103_1" />
<path d="M195.1,263.1l-0.3,2.3l-8.6,1.5l-0.8,4l3.9,10.5l-3.1,2.3l-1.6,3.5l1.6,4l3.9,1.5l1.6,3.2l6.5,3.7" class="g103_1" />
<path d="M326,181l0,76" class="g103_1" />
<path d="M319.5,256.7l6.8,0.6" class="g103_1" />
<path d="M265.9,218.1l11.8,0.3l-0.3,9.9l8.6,2.9l5.8,-6.1l8.6,2.3l10.5,8.4l3.1,0l7.9,12.8l-2.4,8.1" class="g103_1" />
<path d="M265.9,218.1l-0.5,-36.8" class="g103_1" />
<path d="M326,181l-61,0" class="g103_1" />
<path d="M433.8,504.5l0.2,27.8l-4.2,12.5l-1.3,-0.3l-1,4.3" class="g103_1" />
<path d="M413.6,557.2l5.3,-6.3l0.2,-1.8l6.8,-0.3l1.6,0" class="g103_1" />
<path d="M374.7,541.9l9.9,2l12.6,1.5l3.6,9.2l-0.8,1.2l0,1.2l6.6,2.3l0.5,-2.1l6.5,0" class="g103_1" />
<path d="M377,504.5l12.6,26.9l-0.6,2.1l-1.8,0.2l0.3,3.2l-5,0l-8.1,3.5l0.3,1.5" class="g103_1" />
<path d="M360,356.2l-1.3,-1.4" class="g103_1" />
<path d="M360,356.2l4.7,0.6l2.7,0.3l4.1,7.5" class="g103_1" />
<path d="M302.2,392.2l6.1,-4.4l4.1,-1.7l2.1,-0.6l3.4,0l6.6,-0.9" class="g103_1" />
<path d="M358.7,354.8l-12.8,11l0,3.2l-1.6,0l0,1.4l-1.5,0.3l0,2l-5,0.3l-13.3,11.6" class="g103_1" />
<path d="M214.1,337.1l-1.8,0.5l-3.7,-3.4l-2.6,0.5l-11.7,-7.2l-2.1,0.6" class="g103_1" />
<path d="M214.1,337.1l-0.2,5.2l1.8,1.7l-1.3,2.1l1.8,3.4l-2.3,-0.8l0.5,2.9l-7.3,-4.1l-0.8,-0.6L197.4,342l-2.6,-2.3l-3.7,3.5l0.8,-5.6l-0.5,-5.5l3.9,1.2l-3.1,-5.2" class="g103_1" />
<path d="M309,362l2.9,-2.3l-1.5,-1.8l8.3,-3.7l2.9,0l3.4,-0.3l6.8,1.4L343,352.4l0.8,-2.3l4.2,-2l10.7,6.7" class="g103_1" />
<path d="M309,362l4.5,8.7l-0.3,2.3l4.2,4.4l0.5,2.6l6.6,4.6" class="g103_1" />
<path d="M164,241l28,0" class="g103_1" />
<path d="M192.4,251.8l-1.3,-5.6l0.8,-0.5l0.8,-3.8" class="g103_1" />
<path d="M167.9,305.1l5.5,-2.9L183.8,302l0,-1.5l2.6,-0.9l11.8,0" class="g103_1" />
<path d="M144.1,241.6l4.4,7l4.5,3.2l2.1,12.4l-2.4,6.4l0.3,4.7l6,13.6l-2.1,5.8l11,10.4" class="g103_1" />
<path d="M285.5,407.3L274,400.9l-0.5,-2l-2.4,0l-1,-2.7" class="g103_1" />
<path d="M270.1,396.2l-0.8,-3.4l1.8,-2.7l-1.3,-0.2l0.8,-2.9" class="g103_1" />
<path d="M309,362l-27.4,12.2l0.8,2.9L270.6,387" class="g103_1" />
<path d="M259,181l6,0" class="g103_1" />
<path d="M259.6,181.3l-0.2,-40.9" class="g103_1" />
<path d="M286,139.8l-26.6,0.6" class="g103_1" />
<path d="M286,139.8l40.3,0.6" class="g103_1" />
<path d="M326,181l0,-41" class="g103_1" />
<path d="M398.7,349.2L365.8,323.1" class="g103_1" />
<path d="M398.7,349.2l26.2,20.6" class="g103_1" />
<path d="M360,356.2l3.7,-2.3l-1.3,-1.2l1.3,-1.7l-6,-6.1l0.5,-4.6l-5,-3l-1.8,0.9l-1.8,-2.9l-1.3,0.9l-1.9,-2.6l-2.1,0l0.3,-3.8l-1.8,-3.2" class="g103_1" />
<path d="M357.1,316.5L346.2,308" class="g103_1" />
<path d="M365.8,323.1l-8.7,-6.6" class="g103_1" />
<path d="M317.4,456l-48.9,-0.6" class="g103_1" />
<path d="M246,400l-1.3,11.3l-5.5,1.8l-0.7,4.9l3.1,7.3l0,1.7l0,1.4l11,7.9l8.1,12.5l7.8,6.6" class="g103_1" />
<path d="M251.5,399.7l-2.3,-1.1l-1.6,0L246,400" class="g103_1" />
<path d="M251.5,399.7l6.6,7l2.8,1.1l-1.5,1.5l7.8,5.2l-1,1.5l1.8,1.1l-0.8,2.1l2.9,-0.3l8.9,9.5l0,2.9l2.3,0.3l0.6,-1.4l2.1,0.3l0.5,-2.1l8.3,6.4l1.6,-0.3l-1.6,-5.2l2.7,1.5" class="g103_1" />
<path d="M230.1,317.3l-1.6,-5.2l-3.6,-3.8l-2.4,-6.9l-5.2,-1.8" class="g103_1" />
<path d="M230.1,317.3l-0.8,5l3.4,5.2l-7.3,0l-0.3,6.9l1.3,1.2l-2.6,0.6" class="g103_1" />
<path d="M218.3,334.4l2.9,1.8l2.6,0" class="g103_1" />
<path d="M206.8,309.8l-0.5,4.9l7.1,6.4l-0.6,1.7l2.1,1.2l-0.5,1.4l1.6,0.3l2.1,5l0.2,3.7" class="g103_1" />
<path d="M280.5,271.8l-5.4,1.4l-2.9,2.3l-1.1,2.4l-2.3,0.8l-0.3,12.2" class="g103_1" />
<path d="M280.5,271.8l11,-1.7l2.4,-3l4.7,-1.7l5.2,4.9l23,0" class="g103_1" />
<path d="M326.3,276.7l0.5,-6.4" class="g103_1" />
<path d="M326.3,276.7l-3.9,0.3l-25.9,-0.3l-10.7,7l-5,4.6l-2.3,4.1l-4,-1.5l-2.6,1.5l-3.4,-1.5" class="g103_1" />
<path d="M440.3,570.6l-0.3,-2l3.7,-5.6l-5.2,-3.1l0,-1.5l-3.7,-2l-2.1,-4.7" class="g103_1" />
<path d="M440.3,570.6l-0.8,2l-2.6,0.6l0,1.5" class="g103_1" />
<path d="M413.6,557.2l10.2,7.3l1.6,0.6l11.5,9.6" class="g103_1" />
<path d="M432.7,551.7l-5.2,-2.9" class="g103_1" />
<path d="M326,289l0,-3" class="g103_1" />
<path d="M274,306.9l-14.9,-0.6" class="g103_1" />
<path d="M262,293l0,3.4l-2.1,0l-0.8,9.9" class="g103_1" />
<path d="M262,293l2.9,-1.8l1.8,-0.8l1.8,0.5" class="g103_1" />
<path d="M326,284l0,-8" class="g103_1" />
<path d="M326,286l0,-2" class="g103_1" />
<path d="M260.2,233.2l-0.8,-1.5l4.9,-2.6l-0.5,-3.4L263,223.9l-4.4,-1.2l-0.5,-4.3" class="g103_1" />
<path d="M265.9,218.1l-7.8,0.3" class="g103_1" />
<path d="M280.5,260.8l2.4,-2.1l1.1,-4.3l2.6,-1.2l4.1,3.5l0.6,-0.6l4.2,2.3l9.4,-1.7l14.6,0" class="g103_1" />
<path d="M280.5,260.8l-2,1.1" class="g103_1" />
<path d="M440.3,570.6l6.5,0l-0.5,1.2l5.5,2l53.9,0.9" class="g103_1" />
<path d="M581.2,541.9l-41,0l0,2.3L501,544.5l-34.6,-0.3l-0.2,1.2l-13.4,-0.6l-14.9,-0.6l-0.5,2.6l-2.1,0.9l0,2L433,550l-0.3,1.7" class="g103_1" />
<path d="M581.2,541.9l-2.3,3.2l0.8,0.8l-4,3.8l0,11.6l-0.8,6.1l-2.8,2.3l0.5,1.5l-3.7,3.5" class="g103_1" />
<path d="M254.9,338.5l1.6,-4.9l2.6,-3.2l3.4,1.4l15.4,-3.7l2.9,0.3" class="g103_1" />
<path d="M253.9,327.5l-1.1,5.8l-4.4,5.2l-5.5,1.8" class="g103_1" />
<path d="M253.9,327.5l3.6,-4.7l0.6,-3.7l-2.4,-1.2l2.4,-1.7l0,-1.8l-4.7,-3.7l0.2,-4.7" class="g103_1" />
<path d="M253.6,306l5.5,0.3" class="g103_1" />
<path d="M251.5,399.7l1.3,-1.4" class="g103_1" />
<path d="M270.1,396.2l-1.6,0l-6.3,0.3l-2,-1.7l-2.1,0.6l0,1.7l-1.3,0.9l-4,0.3" class="g103_1" />
<path d="M571.3,494.3L524,453.1" class="g103_1" />
<path d="M581.2,541.9l8.6,-6.1l4.5,-3.2L594,530.9" class="g103_1" />
<path d="M504.3,615.6l-46,4.3l-0.5,-5.2l-1.3,-2.3l3.1,1.7L455.2,610l-2.1,1.2l-0.3,-2l1.1,-0.9l-1.8,-2.9l0.7,-2.6L452.3,597l-5,-11.3l-10.4,-11" class="g103_1" />
<path d="M214,358l2,0l2,0" class="g103_1" />
<path d="M214.4,358.5l-1,-4.3l3.6,-0.9l0.8,0l1.8,0l1.1,3.5l-1.9,1.7" class="g103_1" />
<path d="M284.7,339.7l-0.2,14.8l0.8,0.8l-0.8,1.5l-2.9,-1.2l-7.6,2.1l-14.9,11.9" class="g103_1" />
<path d="M350.9,500.1l-2.4,0.3l-6.8,-4.1l-3.6,0.3l-15.7,-6.9l-4.2,3.7l-5.5,1.2l0.3,5.5l-8.1,-4.6l-6.6,1.7" class="g103_1" />
<path d="M298.3,497.2l1.1,-8.4l-4.2,-3.2l-1.3,0.9l-6.3,-5.6l1.8,-3.1l0.8,0.5l-2.1,-5.5l-5.7,-1.4L271.1,460.6l-2.6,-5.2" class="g103_1" />
<path d="M221.5,386.7l0,-2.4l3.6,-1.1l3.9,0l0.3,-3.2" class="g103_1" />
<path d="M221.5,386.7l-4,-5.8l0.6,-7.6l-1.9,-2l0,-2l-3.1,-3.2l1.3,-4.1l0,-3.5" class="g103_1" />
<path d="M232.4,369.6l-7,-4.7L223.8,364l-4.2,-1.1l-0.8,-4.4" class="g103_1" />
<path d="M229.3,380l-2.9,-5.2l0.8,-2.6l5.2,-2.6" class="g103_1" />
<path d="M351.9,500.4l0,21.5l0,1.4l0.3,2" class="g103_1" />
<path d="M298.3,497.2l2.1,4.9l-1.8,4.1l1.3,4.9l-1.1,5.2l6.6,3.5l1.5,2.1l1.4,0.5l12.5,-0.5l13.1,2.3l11.7,-0.6l6.6,1.7" class="g103_1" />
<path d="M237.7,369.8l-2.7,0.9l-2.6,-1.1" class="g103_1" />
<path d="M259.1,369.6l1.3,5.2l2.1,1.4l-0.8,3.8l-1.3,0l1.8,6.1l6.6,-1.2l1.8,2.1" class="g103_1" />
<path d="M229.3,380l5.5,6.1l8.1,2.9l0.5,1.7l2.9,1.2l1.3,1.4l1.6,2.7l3.6,2.3" class="g103_1" />
<path d="M221.5,386.7l9.1,8.1l4.2,0.9l4.7,-0.9L246,400" class="g103_1" />
<path d="M186.4,226.8l3.2,-1.7l3.1,0l7.8,-2.6l4.2,2L211,221l12,1.2l3.2,0l4.1,-1.8l25.1,-2l2.7,0" class="g103_1" />
<path d="M186.4,226.8l0,-3.5l7.9,-6.3l8.3,-4.7l-2.8,-5.8l2.3,-0.9l0,-0.8l1.8,-4.1l3.4,-4.6l0.3,-4.7l2.6,-0.8l0.5,-2.1l-1.5,-0.3l5.2,-2.6l-2.1,-4.3" class="g103_1" />
<path d="M259.6,181.3l-35.8,0.3l-6.5,-1.5l-0.8,-0.3l-4.2,1.5" class="g103_1" />
<path d="M326.8,270.3l-0.5,-13" class="g103_1" />
<path d="M280.5,260.8l-2,5.2l0.5,0.9l1.5,4.9" class="g103_1" />
<path d="M212.3,181.3l-2.1,-1.5l2.1,-5.8l-3.7,-1.4l-8.3,5.8l-1.6,4l-3.9,-2.9l-5,2.1l-0.2,5.5l1.8,0.3l1.6,1.7l-1.3,2l-1.9,-2.6l-1,1.8l-2.9,-2.4l-6,-0.5L176,183.6l-5.5,-1.7" class="g103_1" />
<path d="M178,140l-14,0" class="g103_1" />
<path d="M221,140l-43,0" class="g103_1" />
<path d="M221,140l38,0" class="g103_1" />
<path d="M230.1,317.3l4.4,1.5l6.3,-2.6l3.1,0.3l5.3,-0.6l0,11.6l4.7,0" class="g103_1" />
<path d="M224.6,340.3L229,340l-1.8,-0.6l-1.8,-0.9l-1.6,-2.3" class="g103_1" />
<path d="M214.1,337.1l-1.5,-0.9l2.6,0.3l2.1,-2.3l1,0.2" class="g103_1" />
<path d="M192.2,328.1l-3.9,-1.5l-5,-8.4L180.2,317l-2.9,-1.1l-9.4,-10.8" class="g103_1" />
<path d="M309,362L297,351.8" class="g103_1" />
<path d="M243.4,295.9l2.1,3.7l2.1,-0.3l1.8,3.8l0,1.5l3.2,-1.2l1,2.6" class="g103_1" />
<path d="M252.6,277l0.2,4.1l1.1,7.8l-0.8,1.5l1.6,6.3l1.3,-2l6,-1.7" class="g103_1" />
<path d="M186.4,226.8l3.4,1.2l-0.2,4.9l1,7l2.1,2" class="g103_1" />
<path d="M374.7,541.9l-5,-2.1l-2.1,0.3l-2.6,-2l-1.8,-3.8l-1.3,-2l-9.7,-7" class="g103_1" />
<g clip-path="url(#c0_1)">
<path d="M634.8,109l-3.4,-0.5l-2.9,-2.1l-4.4,0.3" class="g103_1" />
<path d="M613.1,80L627,80.6l0,16.8l-2.6,0l-0.3,9.3" class="g103_1" />
<path d="M645.3,140.9l-47.1,-0.3" class="g103_1" />
</g>
<path d="M598.2,140.6l-11.7,-0.2" class="g103_1" />
<path d="M586.5,140.4l0,-20.6l10.1,-0.6l-0.2,-4.1l0.8,-0.3l0.2,-0.8l1.9,0" class="g103_1" />
<path d="M603.4,112.8l-4.1,1.2" class="g103_1" />
<path d="M624.1,106.7l-3.7,0.9l-6.8,6.6L611.3,114L610,112.5l-6.6,0.3" class="g103_1" />
<g clip-path="url(#c0_1)">
<path d="M550,80l0,14l2,0" class="g103_1" />
</g>
<path d="M552,94l0,7" class="g103_1" />
<g clip-path="url(#c0_1)">
<path d="M499.4,85.2l0.8,2.6l10.4,4.1L515.1,91l0.5,1.2l1.3,-0.3l2.1,1.5l14.6,0.8L536,93.4l-0.3,8.1l16.5,0.3" class="g103_1" />
</g>
<path d="M571.5,108.2l-8.1,-1.5l-4.1,-4.3l-1.4,0l1.6,-3.5l-3.9,-4.4l-3.4,0" class="g103_1" />
<g clip-path="url(#c0_1)">
<path d="M573,97l0,-17" class="g103_1" />
</g>
<path d="M571.5,108.2l0,-2.1l0,-8.1l1.6,-0.3" class="g103_1" />
<path d="M603.4,102.4l-5.4,0l0,-2.4l-13.1,0l-0.3,-0.5l-1,-1.8l-10.5,0" class="g103_1" />
<path d="M603,102l0,10" class="g103_1" />
<path d="M571.5,108.2l13.1,3.7l7.1,1.2l2.1,2.3l2.6,-1.4l2.9,0" class="g103_1" />
<g clip-path="url(#c0_1)">
<path d="M603.4,102.4l7.1,0l0.3,-4.7l2.1,-0.3L613.1,80" class="g103_1" />
<path d="M462,55l0,85" class="g103_1" />
</g>
<path d="M551.9,140.4l0.3,-38.6" class="g103_1" />
<path d="M462,140l89,0" class="g103_1" />
<path d="M551,140l35,0" class="g103_1" />
<path d="M428,288l-6.5,1.5" class="g103_1" />
<path d="M385,289l36,0" class="g103_1" />
<path d="M385.4,289.5L364.7,272.6L370,255l-6.3,6.1" class="g103_1" />
<path d="M361.6,241.3l2.1,7.3l0.2,3.2l0.8,3.2l0.3,1.7l-2.4,1.4l1.1,3" class="g103_1" />
<path d="M436,241l-75,0" class="g103_1" />
<path d="M428,288l0.5,-4l3.4,-1.2l-2.3,-6.4l4.2,-6.3l0.5,-3l1.5,-0.2l3.7,-2.9l2.4,-1.8l-0.8,-8.7l-5.5,-6.7l1.3,-1.7l0,-3.8" class="g103_1" />
<path d="M513,401l0,43" class="g103_1" />
<path d="M513.8,401.7l7.3,0l0,-0.5l77.1,0.8" class="g103_1" />
<path d="M326.3,286.9l9.2,-0.3l12.5,1.7" class="g103_1" />
<path d="M348,288.3l10.5,0.6l-4.7,6.4l0.7,6.7l-0.5,2.6l2.9,5.2l1.8,4.3l-1.6,2.4" class="g103_1" />
<path d="M518,235l80,0" class="g103_1" />
<path d="M519,235.5l-10.2,0L502,208.3l0,-17.4l-19.1,-0.3" class="g103_1" />
<path d="M462,190l20,0" class="g103_1" />
<path d="M462.3,140.4l0.5,50.2" class="g103_1" />
<path d="M598.2,140.6l0.3,50.5" class="g103_1" />
<path d="M598,191l0,44" class="g103_1" />
<path d="M398.7,349.2l3.7,0l29.5,-29.5" class="g103_1" />
<path d="M431.9,319.7l19.9,19.4l-0.3,1.7l1.9,0l1.5,2.1l0.3,51.9" class="g103_1" />
<path d="M519,235.5l0.5,7.9l1.6,2.3l-1.1,5.8l1.6,6.4l-0.5,2.9l0,3.4l-2.4,7.6l-1.5,0.3l-0.8,12.7" class="g103_1" />
<path d="M516.4,284.8l-34.3,-0.3" class="g103_1" />
<path d="M482.9,190.6l-0.8,93.9" class="g103_1" />
<path d="M449.7,214.9l0.3,-7.8l-16.2,-0.3l0.2,-8.1l-51,0l0,-5.5l-25.3,0" class="g103_1" />
<path d="M357.7,193.2l-1.1,-14.5l1.6,0l0,-38.3" class="g103_1" />
<path d="M358,140l50,0" class="g103_1" />
<path d="M462,140l-54,0" class="g103_1" />
<path d="M449.7,214.9l3.1,-5.5l10.5,-0.3l-0.5,-18.5" class="g103_1" />
<path d="M449.7,214.9l-12.8,26.4" class="g103_1" />
<path d="M428,288l18,-2.9l36.1,-0.6" class="g103_1" />
<path d="M598,309l0,4" class="g103_1" />
<path d="M598.2,313.6l0.3,22.6" class="g103_1" />
<path d="M598.5,336.2l-0.3,27" class="g103_1" />
<path d="M598.5,394.2l-0.3,-31" class="g103_1" />
<path d="M513.8,401.7l0,-59.7l41,-0.6l0,-31.9" class="g103_1" />
<path d="M598,309l-44,0" class="g103_1" />
<path d="M359,261.6l4.7,-0.5" class="g103_1" />
<path d="M365.8,323.1l9.4,-0.3L376,301.4l-4.7,-0.3l0,-4.9l4.4,-7.3l9.7,0.6" class="g103_1" />
<path d="M339.4,279.6l3.9,2.9l2.1,0l2.6,5.8" class="g103_1" />
<path d="M359,261.6l-10.5,14.5l-4.4,2.4l-4.7,1.1" class="g103_1" />
<path d="M431.9,319.7L408.9,297l-0.5,-4.6l13.1,-2.9" class="g103_1" />
<path d="M554.8,309.5L516.4,284.8" class="g103_1" />
<path d="M357.7,193.2L357.1,241l4.5,0.3" class="g103_1" />
<path d="M359,261.6l-16.7,5.3l-1.6,0.8l1.6,6.4l-2.9,5.5" class="g103_1" />
<path d="M339.4,279.6l-5.5,3.2l-1.1,0.3l-6.5,1.4" class="g103_1" />
<path d="M326,140l29,0" class="g103_1" />
<path d="M355,140l3,0" class="g103_1" />
<path d="M598.5,235.5l0.2,11.6" class="g103_1" />
<path d="M598.5,265.4l0.2,-18.3" class="g103_1" />
<path d="M598.5,265.4l-0.3,44.1" class="g103_1" />
<path d="M152.4,99.7l-8.6,5.9l-6.3,1.4l0,-2.6L137,103.2l-1,-3.7l1.3,0l0,-2.1l-3.2,-1.7l-0.2,-2l-1.6,0l0,-1.5l-8.6,0.3" class="g103_1" />
<g clip-path="url(#c0_1)">
<path d="M136,59.7L131,71l-3.1,3.2l0.7,2.3l-4.9,16" class="g103_1" />
<path d="M152.4,99.7l0,-8.7l2.4,-0.3l0.3,-4.3l3.1,-1.2l-0.3,-7.8l-3.1,-0.3l0,-8.7l-2.4,0l0,-4.1l-2.3,-0.5l-0.3,-4.1l-13.8,0" class="g103_1" />
</g>
<path d="M152.4,99.7l4.5,2.1" class="g103_1" />
<path d="M156.9,101.8l-4.5,5.8l-3.4,8.1l-4.7,0.3l-2.3,6.7l8.1,0.8l1.8,1.5l1.6,4.3l-2.6,3.8l1,1.8l-0.8,5.5" class="g103_1" />
<path d="M135.7,140.6l-6.8,-8.1l-2.9,-9l0,-5.2l0.5,-2.6l1.9,-3.5L127.1,109L119.7,98l4,-5.5" class="g103_1" />
<g clip-path="url(#c0_1)">
<path d="M222.2,90.5l0,-3.5l8.9,-0.3l2.1,-7.3l2.9,-2l-1.3,-1.1l0,-3.8L229,68.4" class="g103_1" />
</g>
<path d="M179.1,105.8l3.7,-2.9l15.4,-1.1l12,-8.1l3.9,0l3.4,-3.2l4.7,0" class="g103_1" />
<path d="M156.9,101.8l0.5,2l0.5,-1.1l6,0.8l0.3,1.8l4.7,0.3l2.4,0l0,-0.9l7.8,1.1" class="g103_1" />
<g clip-path="url(#c0_1)">
<path d="M407.4,37.9l-0.3,56l0.8,0.6l0,31.6l1.3,0.3l-0.5,14" class="g103_1" />
<path d="M331.8,59.4l0,21.8l-1.6,0l-1,13.9l0.5,7.8l11.2,-0.2l15,0l-0.6,37.7" class="g103_1" />
</g>
<path d="M179.1,105.8l-0.3,34.6" class="g103_1" />
<path d="M221.5,140.4l0.2,-22.7l0.8,-0.3L222.2,90.5" class="g103_1" />
<g clip-path="url(#c0_1)">
<path d="M266.2,59.1l-0.8,14l0,29.8l21.2,0L286,139.8" class="g103_1" />
<path d="M669.9,335.6l-35.6,0l-35.8,0.6" class="g103_1" />
<path d="M598.2,313.6l25.1,0l19.1,0l25.9,-0.3" class="g103_1" />
<path d="M669.3,187.1l-17.5,4.3l-26.9,0l-26.4,-0.3" class="g103_1" />
<path d="M650.5,368.4l-5.7,0l0,1.4L634.3,369L634,366.9l-9.4,-0.2l-0.2,-3.8l-26.2,0.3" class="g103_1" />
<path d="M598.5,265.4l82.3,-0.9l1.6,-0.8l0.5,1.1l-0.8,5l1.1,5.5l7.3,0.8" class="g103_1" />
<path d="M683.7,241l-7,4.7l-1.1,1.1l-76.9,0.3" class="g103_1" />
</g>
<path d="M571.3,494.3L571,489.9l3.2,-3.7l-2.4,-11.6l-1.6,-4.7l-1.8,-14.8L567.9,449l-1.1,-2.3l0,-2.9l-1,-2.3l1,-2.3l4.2,-1.8l14.4,1.5l0.8,3.5l2.1,0.8l5.7,-0.5l4,-8.8l0.5,-39.7" class="g104_1" />
<g clip-path="url(#c0_1)">
<path d="M770,394.2l-44.2,0l-3.1,-0.3l-124.2,0.3" class="g104_1" />
<path d="M566.8,610l-3.4,11.1l113.3,39.1l55.1,19.5L770,680" class="g104_1" />
</g>
<path d="M571.3,494.3l1.3,6.7l2.6,2.6l-1,1.4l5.7,5l3.4,12.1l10.7,8.8l0.3,1.7l-13.1,9.3l-2.3,3.2l0.8,0.8l-4,3.8l0.8,9.9l-1.6,7.8l-2.8,2.3l0.5,1.5l-5.5,4.9l-0.5,4.7l2.3,2.3l-0.5,9.3l7.3,2l2.6,2.3l0.3,6.1l-3.4,5.8l-8.4,1.4" class="g104_1" />
<path d="M571.3,494.3L424.9,369.8L332.6,297.3l-5.8,-4L326.3,140.4" class="g104_1" />
<path d="M566.8,610l-108.5,9.9l-0.5,-5.2l-1.3,-2.3l3.1,1.7L455.2,610l-2.1,1.2l0.8,-4.3L451.8,604l1.3,-3.2l-4.2,-11.9l-7,-9.6L423.8,564.5l-12.3,-7.8L410,556.4l-2.9,2l-3.1,0.3l-4,-2.9l1.1,-2.6l-5.3,-8.7l-20.3,-2l-5.8,-2.7l-2.1,0.3l-6.3,-9l-13.6,-7.2l-2.1,-0.3l-11.7,0.6l-13.1,-2.3l-12.5,0.5l-4.5,-4.6l-5,-1.5l1.1,-8.1l-1.1,-4l1.6,-2.1l-2.1,-4.9l1.1,-8.4l-4.2,-3.2l-1.3,0.9l-6.3,-5.6l1.8,-3.1l1.3,0.3l-2.8,-6.4l-5.5,-0.3L271.1,460.6l-5.4,-7.5l-5,-4.3l-8.1,-12.5l-11,-7.9L240,419.5l-1.5,-2.1l0.5,-2l1.3,-3.2l4.4,-0.9L246,400l-6.5,-5.2l-5.7,0.9l-8.2,-4.4l-8.1,-10.4l0.6,-7.6l-2.4,-4.9l-2.6,-2.3l0.8,-8.4l-0.5,-3.5l3.1,-1.5l3.1,0.6l0.3,2l-0.3,1.8l0,5.8l13.6,7.2l4.5,-0.3l-4.5,-2.6l-3.1,-6.1l-7.3,-7.2l0,-4.1l-4.7,-4.6l1.8,-2.6l5.5,-2.3l2.8,0.2l-2.8,-2l-1.6,-2.3L216.2,335l-3.6,1.2l0.8,0.9l0,3.4l1.8,2.4l-0.8,1.4l2.3,4.9l-2.3,-0.8l0,3.2l-17,-9.6l-2.6,-2.3l-3.7,3.5l0.8,-5.6l-0.5,-5.5l3.9,1.2L193,329.5l-4.7,-2.9l-2.7,-5.8l-8.3,-4.9l-3.9,-5.8L156.9,294.7l2.1,-5.8l-5.3,-10.2l-1,-8.1l2.4,-6.4L153,251.8l-4.5,-3.2l-8.1,-12.8l-12.3,-8.7l0.8,-3.8l-2.4,-4l0.3,-3.5l13.1,-26.4L137,183.6l1.1,-2.9l1.8,1.2l0,-4.7l2.1,-6.4l-1.3,-7.2l1.5,0l-3.1,-6.7l-5.2,-6.4l1.8,-9.9" class="g104_1" />
<path d="M326.3,140.4l-104.8,0l-42.7,0l-43.1,0.2" class="g104_1" />
<g clip-path="url(#c0_1)">
<path d="M464.4,0l-2.7,1.7l-7.6,12.8l-1.3,5.2l1.3,4.3l2.1,2.4l2.9,-0.6l2.1,2l2.1,-1.2l2.4,1.8l2,3.8l-2.3,2.9l1,4l-4.1,11l0,90.3" class="g104_1" />
<path d="M735,140.9l-48.4,-0.3l-88.4,0" class="g104_1" />
</g>
<path d="M598.2,140.6l-11.7,-0.2l-34.6,0l-89.6,0" class="g104_1" />
<path d="M462.5,140.5l-104,0l-32,0" class="g104_1" />
<path d="M598.2,140.6l0.3,124.8l-0.3,44.1l0.3,84.7" class="g104_1" />
<g clip-path="url(#c0_1)">
<path d="M135.7,140.6l-6.8,-8.1l-2.9,-9l0.5,-7.8l1.9,-3.5l-3.9,-8.7L119.7,98l5,-7.5l3.9,-14l-0.2,-3.4l5.7,-8.2L137,54.2l6,-36.6l-0.5,-13L143.3,0" class="g104_1" />
</g>

<path d="M0,770
L0,0
L770,0
L770,770 z "
fill="none"
stroke-width="1.0"
stroke-linecap="butt"
stroke-linejoin="miter"
stroke="#000000" />
<title>R Graphics Output Page1</title>
</svg>
